<svg width="132" height="38" viewBox="0 0 132 38" fill="none" xmlns="http://www.w3.org/2000/svg">
<path d="M18.6924 0C29.0156 0 37.3845 8.36823 37.3848 18.6914C37.3848 29.0148 29.0158 37.3838 18.6924 37.3838C8.36906 37.3837 0 29.0147 0 18.6914C0.000236505 8.36827 8.36921 6.04349e-05 18.6924 0ZM17.0566 14.9307C16.1549 14.9308 15.6396 15.4145 15.6396 16.3164V23.3389H18.2812V17.251L22.501 17.3467V15.0596L17.0566 14.9307ZM9.10059 13.9346C7.8552 13.9346 6.8457 14.9441 6.8457 16.1895C6.84581 17.4347 7.85526 18.4443 9.10059 18.4443C10.3458 18.4442 11.3554 17.4346 11.3555 16.1895C11.3555 14.9442 10.3458 13.9347 9.10059 13.9346ZM28.4609 13.9336C27.2155 13.9336 26.2061 14.9441 26.2061 16.1895C26.2063 17.4347 27.2157 18.4443 28.4609 18.4443C29.7061 18.4443 30.7156 17.4346 30.7158 16.1895C30.7158 14.9441 29.7063 13.9336 28.4609 13.9336Z" fill="#596AFE"/>
<path d="M50.3828 14.3256C50.3828 12.8299 51.3934 11.981 53.2126 12.0214L64.0466 12.2235V16.0639L55.5977 15.9022V26.0894H50.3828V14.2852V14.3256Z" fill="#1D1348"/>
<path d="M123.676 5.39209L121.25 5.47294V5.39209H123.676Z" fill="#1D1348"/>
<path d="M86.1094 11.9819V15.9032L101.309 16.1862L86.1094 18.5713V22.8159L87.4434 22.5734L102.643 19.5415V11.9819H86.1094Z" fill="#1D1348"/>
<path d="M125.684 12.022L121.358 22.007L116.992 12.022H110.969L118.69 25.2815L116.022 31.9921H121.318L123.986 25.2815L131.707 12.022H125.684Z" fill="#1D1348"/>
<path d="M79.7213 12.022L75.3958 22.007L71.0298 12.022H65.0469L72.7277 25.2815L70.0596 31.9921H75.3958L78.0638 25.2815L85.7446 12.022H79.7213Z" fill="#1D1348"/>
<path d="M113.641 22.209V26.1303H103.656V5.47294L106.082 5.39209H108.992V22.209H113.641Z" fill="#1D1348"/>
<path d="M102.643 22.5327V26.1306H86.1094V23.0178L87.4434 22.7753L102.643 22.5327Z" fill="#1D1348"/>
</svg>
